<svg xmlns="http://www.w3.org/2000/svg" viewBox="0 0 24 24" style="enable-background:new 0 0 24 24" xml:space="preserve">
    <path d="M19 22H5c-1.7 0-3-1.3-3-3V5c0-1.7 1.3-3 3-3h14c1.7 0 3 1.3 3 3v14c0 1.7-1.3 3-3 3zM5 4c-.6 0-1 .4-1 1v14c0 .6.4 1 1 1h14c.6 0 1-.4 1-1V5c0-.6-.4-1-1-1H5z"/>
    <path d="M16 13H8c-.6 0-1-.4-1-1s.4-1 1-1h8c.6 0 1 .4 1 1s-.4 1-1 1zm-4 4c-.1 0-.3 0-.4-.1-.1 0-.2-.1-.3-.2-.2-.2-.3-.4-.3-.7 0-.1 0-.3.1-.4.1-.1.1-.2.2-.3.1-.1.2-.2.3-.2.2-.1.5-.1.8 0 .1 0 .2.1.3.2.1.1.2.2.2.3 0 .1.1.2.1.4 0 .3-.1.5-.3.7-.2.2-.4.3-.7.3zm0-8c-.1 0-.3 0-.4-.1-.1-.1-.2-.1-.3-.2-.2-.2-.3-.4-.3-.7v-.2c0-.1 0-.1.1-.2 0-.1.1-.1.1-.2s.1-.1.1-.1c.1-.1.2-.2.3-.2.4-.2.8-.1 1.1.2l.1.1c0 .1.1.1.1.2s0 .1.1.2V8c0 .3-.1.5-.3.7-.1 0-.1.1-.1.1-.1 0-.1.1-.2.1s-.1 0-.2.1H12z"/>
</svg>
