<svg xmlns="http://www.w3.org/2000/svg" viewBox="0 0 24 24" style="enable-background:new 0 0 24 24" xml:space="preserve">
    <path d="M12 23C5.9 23 1 18.1 1 12S5.9 1 12 1s11 4.9 11 11-4.9 11-11 11zm0-20c-5 0-9 4-9 9s4 9 9 9 9-4 9-9-4-9-9-9z"/>
    <path d="M16.6 21.5c-.5 0-.9-.3-1-.8-.7-2.9-1.3-5.1-2.1-7.1-.1 0-.3.1-.4.1-2.5.9-4.8 2.8-7 6-.3.5-.9.6-1.4.2-.5-.3-.6-.9-.2-1.4 2.4-3.5 5-5.7 7.9-6.7.1 0 .2-.1.4-.1-.2-.4-.3-.8-.5-1.2-2.9.9-6.3 1.2-10 1.3-.6 0-1-.4-1-1s.4-1 1-1c3.7.1 6.6-.3 9.1-1-1-1.7-2.1-3.4-3.6-5.5-.4-.4-.3-1 .2-1.4.4-.3 1-.2 1.4.3 1.6 2.2 2.9 4.1 3.9 6 2.1-.9 3.7-2.1 5.1-3.7.4-.4 1-.5 1.4-.1.4.4.5 1 .1 1.4-1.6 1.9-3.5 3.3-5.7 4.2.2.5.4.9.6 1.4 2.2-.3 4.7-.1 7.2.5.5.1.9.7.7 1.2-.1.5-.7.8-1.2.7-2.1-.6-4.1-.7-5.9-.6.7 2 1.3 4.2 2 7 .1.5-.2 1.1-.7 1.2-.2.1-.2.1-.3.1z"/>
</svg>
