<svg xmlns="http://www.w3.org/2000/svg" viewBox="0 0 24 24" style="enable-background:new 0 0 24 24" xml:space="preserve">
    <path d="M20 11H4c-1.7 0-3-1.3-3-3V4c0-1.7 1.3-3 3-3h16c1.7 0 3 1.3 3 3v4c0 1.7-1.3 3-3 3zM4 3c-.6 0-1 .4-1 1v4c0 .6.4 1 1 1h16c.6 0 1-.4 1-1V4c0-.6-.4-1-1-1H4zm16 20H4c-1.7 0-3-1.3-3-3v-4c0-1.7 1.3-3 3-3h16c1.7 0 3 1.3 3 3v4c0 1.7-1.3 3-3 3zM4 15c-.6 0-1 .4-1 1v4c0 .6.4 1 1 1h16c.6 0 1-.4 1-1v-4c0-.6-.4-1-1-1H4z"/>
    <path d="M6 7c-.5 0-1-.4-1-1s.4-1 1-1 1 .4 1 1-.4 1-1 1zm0 12c-.6 0-1-.4-1-1s.4-1 1-1 1 .4 1 1-.4 1-1 1z"/>
</svg>
